<svg width="21" height="21" viewBox="0 0 21 21" fill="none" xmlns="http://www.w3.org/2000/svg">
    <path
        d="M17.355 6.65V16.4722C17.355 17.45 16.555 18.25 15.5773 18.25H4.91059C3.93281 18.25 3.13281 17.45 3.13281 16.4722V4.02778C3.13281 3.05 3.93281 2.25 4.91059 2.25H12.955L17.355 6.65Z"
        fill="#62C558" />
    <path d="M12.9531 5.76111V2.25L17.3531 6.65H13.842C13.3531 6.65 12.9531 6.25 12.9531 5.76111Z" fill="#2A8121" />
    <path
        d="M12.9115 13.5681L12.2243 14.2552L7.57812 9.60943L8.26524 8.92188L12.9115 13.5681ZM9.3399 11.8041L10.0288 12.493L8.26701 14.2552L7.57812 13.5663L9.3399 11.8041ZM12.9115 9.61076L11.1448 11.3774L10.4559 10.6885L12.2226 8.92188L12.9115 9.61076Z"
        fill="white" />
</svg>
