<svg xmlns="http://www.w3.org/2000/svg" viewBox="0 0 24 24" fill="currentColor" aria-hidden="true">
    <g transform="translate(1.9976 1.9992) scale(1.000082 1.000080) matrix(1 0 0 -1 0 20.000000)">
        <path
            d="M20.0031 4.83526C20.0031 4.83526 20.0031 4.91528 20.0031 4.96099V15.0426C20.0027 15.1803 19.9689 15.3101 19.9095 15.4244L19.9117 15.4198C19.8258 15.602 19.6824 15.7454 19.5053 15.8291L19.5002 15.8313L10.3559 19.9234C10.2519 19.9718 10.13 20 10.0016 20C9.87311 20 9.7513 19.9718 9.64191 19.9211L9.64722 19.9233L0.502928 15.8312C0.210248 15.6816 0.0109037 15.3866 2.69796e-05 15.044L0 15.0425V4.96096C0.0183779 4.6192 0.214989 4.32724 0.497891 4.17476L0.502928 4.17226L9.64722 0.0801824C9.75087 0.0295762 9.87276 0 10.0016 0C10.1304 0 10.2522 0.0295762 10.3608 0.0823256L10.3559 0.0801824L19.5002 4.17226C19.7646 4.29544 19.955 4.5388 20.0024 4.83014L20.0031 4.83521L20.0031 4.83526ZM1.71453 13.7281L9.14426 10.3904V2.18338L1.71453 5.50962V13.7281ZM10.8588 10.3904L18.2886 13.7281V5.50967L10.8588 2.18343V10.3904ZM10.0244 18.2088L17.0769 15.0426L10.0244 11.8878L2.97189 15.0426L10.0244 18.2088Z"
            fill="currentColor" />
    </g>
</svg>
