<svg xmlns="http://www.w3.org/2000/svg" viewBox="0 0 24 24" fill="currentColor" aria-hidden="true">
    <g transform="translate(2.0010 2.5704) scale(0.999896 0.999894) matrix(1 0 0 -1 0 18.861200)">
        <path
            d="M18 15.4286H13.7143V16.8572C13.6304 17.9811 12.6979 18.8612 11.5599 18.8612C11.5137 18.8612 11.4678 18.8597 11.4224 18.8568L11.4286 18.8572H8.57143C8.53216 18.8597 8.48627 18.8612 8.44007 18.8612C7.30202 18.8612 6.36956 17.9811 6.28615 16.8643L6.28572 16.8572V15.4286H2.00001C0.898044 15.4221 0.00645535 14.5306 0 13.4292V2.00001C0.00645535 0.898044 0.898017 0.00645535 1.99939 0H18C19.102 0.00645535 19.9935 0.898017 20 1.99939V13.4286C19.9935 14.5305 19.102 15.4221 18.0006 15.4286H18ZM7.99998 16.8572C7.99998 16.9486 8.21713 17.1429 8.5714 17.1429H11.4285C11.7828 17.1429 12 16.9486 12 16.8572V15.4286H7.99998V16.8572ZM1.99998 13.7143H18C18.1578 13.7143 18.2857 13.5864 18.2857 13.4286V9.71429H1.71426V13.4286C1.71426 13.5864 1.84219 13.7143 1.99998 13.7143ZM6.28569 8.00003H13.7143V6.28575H6.28569V8.00003ZM18 1.71431H2.00001C1.84221 1.71431 1.71429 1.84224 1.71429 2.00003V8.00003H4.57144V5.4286C4.57778 4.95779 4.95777 4.57781 5.42796 4.57146H14.5714C15.0422 4.57781 15.4222 4.95779 15.4286 5.42799V8.00003H18.2857V2.00003C18.2857 1.84224 18.1578 1.71431 18 1.71431Z"
            fill="currentColor" />
    </g>
</svg>
