<svg xmlns="http://www.w3.org/2000/svg" viewBox="0 0 24 24" fill="currentColor" aria-hidden="true">
    <g transform="translate(3.6209 1.9992) scale(1.000079 1.000080) matrix(1 0 0 -1 0 20.000000)">
        <path
            d="M13.7838 17.8378H12.4324V19.1892C12.4324 19.637 12.0694 20 11.6216 20C11.1738 20 10.8108 19.637 10.8108 19.1892V17.8378H5.94594V19.1892C5.94594 19.637 5.58292 20 5.13513 20C4.68733 20 4.32431 19.637 4.32431 19.1892V17.8378H2.97297C1.33105 17.8378 0 16.5068 0 14.8649V2.97297C0 1.33105 1.33105 0 2.97297 0H13.7838C15.4257 0 16.7568 1.33105 16.7568 2.97297V14.8649C16.7568 16.5068 15.4257 17.8378 13.7838 17.8378ZM2.97297 16.2162H4.32431V14.8649C4.32431 14.4171 4.68733 14.0541 5.13513 14.0541C5.58292 14.0541 5.94594 14.4171 5.94594 14.8649V16.2162H10.8108V14.8649C10.8108 14.4171 11.1738 14.0541 11.6216 14.0541C12.0694 14.0541 12.4324 14.4171 12.4324 14.8649V16.2162H13.7838C14.5301 16.2162 15.1351 15.6112 15.1351 14.8649V11.8919H1.6216V14.8649C1.6216 15.6112 2.22662 16.2162 2.97294 16.2162H2.97297ZM13.7838 1.6216H2.97294C2.22662 1.6216 1.6216 2.22662 1.6216 2.97294V10.2703H15.1351V2.97294C15.1351 2.22662 14.5301 1.6216 13.7838 1.6216ZM10.5405 6.48647H9.18919V7.83782C9.18919 8.28561 8.82617 8.64863 8.37838 8.64863C7.93058 8.64863 7.56756 8.28561 7.56756 7.83782V6.48647H6.21622C5.76842 6.48647 5.40541 6.12346 5.40541 5.67566C5.40541 5.22786 5.76842 4.86485 6.21622 4.86485H7.56756V3.5135C7.56756 3.06571 7.93058 2.70269 8.37838 2.70269C8.82617 2.70269 9.18919 3.06571 9.18919 3.5135V4.86485H10.5405C10.9883 4.86485 11.3513 5.22786 11.3513 5.67566C11.3513 6.12346 10.9883 6.48647 10.5405 6.48647Z"
            fill="currentColor" />
    </g>
</svg>
