<svg xmlns="http://www.w3.org/2000/svg" viewBox="0 0 24 24" fill="currentColor" aria-hidden="true">
    <g transform="translate(1.0008 1.7105) scale(0.999927 0.999926) rotate(180 11.0000 10.2903)">
        <path
            d="M11 9.93544C8.0604 9.93544 5.67743 12.3184 5.67743 15.258C5.67743 18.1976 8.06042 20.5806 11 20.5806C13.9396 20.5806 16.3226 18.1976 16.3226 15.258C16.3226 12.3184 13.9396 9.93544 11 9.93544V9.93544ZM11 18.4516C9.23627 18.4516 7.80646 17.0218 7.80646 15.258C7.80646 13.4943 9.23627 12.0645 11 12.0645C12.7637 12.0645 14.1935 13.4943 14.1935 15.258C14.1935 17.0218 12.7637 18.4516 11 18.4516ZM20.9355 0C20.3508 0.00788529 19.8789 0.479799 19.871 1.06374V1.06451C19.871 3.83225 18.3665 5.67743 11 5.67743C3.63355 5.67743 2.12903 3.83225 2.12903 1.06451C2.12903 0.476598 1.65243 0 1.06451 0C0.476598 0 0 0.476598 0 1.06451C0 7.80646 7.70709 7.80646 11 7.80646C14.2929 7.80646 22 7.80646 22 1.06451C21.9921 0.479799 21.5202 0.00788529 20.9363 0H20.9355V0Z"
            fill="currentColor" />
    </g>
</svg>
